<?xml version="1.0" encoding="utf-8"?>
<!-- Generator: Adobe Illustrator 15.1.0, SVG Export Plug-In . SVG Version: 6.00 Build 0)  -->
<!DOCTYPE svg PUBLIC "-//W3C//DTD SVG 1.0//EN" "http://www.w3.org/TR/2001/REC-SVG-20010904/DTD/svg10.dtd">
<svg version="1.0" id="Layer_1" xmlns="http://www.w3.org/2000/svg" xmlns:xlink="http://www.w3.org/1999/xlink" x="0px" y="0px"
	 width="204.687px" height="59.217px" viewBox="0 0 204.687 59.217" enable-background="new 0 0 204.687 59.217"
	 xml:space="preserve">
<g>
	<rect x="-3.627" y="-13.719" fill="none" width="197.201" height="64.364"/>
	
		<text transform="matrix(1 0 0 1 -3.6279 41.9028)" fill="#662D91" font-family="'Pigiarniq'" font-size="72.6952" letter-spacing="-3">mvc</text>
	<path fill="#FCD222" stroke="#FFFFFF" stroke-width="0.25" stroke-miterlimit="10" d="M175.252,2.778
		c2.726-0.047,5.221,0.387,7.475,1.302c2.253,0.919,4.199,2.234,5.839,3.942c1.636,1.709,2.903,3.792,3.793,6.249
		c0.89,2.453,1.339,5.194,1.339,8.218c0,2.876-0.423,5.467-1.266,7.771c-0.846,2.307-2.058,4.278-3.64,5.912
		c-1.593,1.637-3.528,2.891-5.808,3.758c-2.278,0.865-4.857,1.301-7.732,1.301c-2.727,0-5.208-0.42-7.435-1.264
		c-2.23-0.843-4.143-2.083-5.729-3.719s-2.814-3.608-3.681-5.913c-0.867-2.306-1.304-4.896-1.304-7.771
		c0-2.976,0.448-5.691,1.339-8.146c0.893-2.455,2.149-4.536,3.758-6.247c1.612-1.71,3.535-3.037,5.766-3.978
		C170.196,3.252,172.623,2.778,175.252,2.778z M175.326,32.603c2.481,0.051,4.503-0.866,6.062-2.751
		c1.56-1.885,2.343-4.338,2.343-7.363c0-1.439-0.188-2.79-0.556-4.053c-0.372-1.264-0.922-2.369-1.638-3.312
		c-0.717-0.941-1.6-1.684-2.642-2.231c-1.037-0.544-2.23-0.818-3.569-0.818c-1.241,0-2.371,0.274-3.383,0.818
		c-1.017,0.547-1.887,1.29-2.606,2.231c-0.715,0.943-1.275,2.047-1.668,3.312c-0.4,1.263-0.6,2.613-0.6,4.053
		c0,3.025,0.748,5.443,2.232,7.251C170.79,31.551,172.798,32.504,175.326,32.603z"/>
	<path fill="#DD2847" d="M204.687,21.288l-9.947-4.731c0.309,1.637,0.482,3.367,0.482,5.216c0,1.461-0.101,2.848-0.302,4.162
		L204.687,21.288z"/>
	<path fill="#FCD222" d="M159.801,40.86v0.743c0,2.478-0.332,4.761-1.003,6.843c-0.67,2.082-1.674,3.877-3.013,5.393
		c-1.339,1.51-3.022,2.688-5.058,3.531c-2.034,0.842-4.389,1.266-7.062,1.266c-1.785,0-3.562-0.223-5.322-0.67
		c-1.757-0.447-3.379-1.068-4.87-1.859c-1.483-0.795-2.8-1.734-3.939-2.826c-1.141-1.092-1.959-2.307-2.455-3.644
		c-0.099-0.298-0.146-0.571-0.146-0.819s0.01-0.496,0.035-0.743c0.025-0.248,0.157-0.496,0.41-0.745
		c0.643-0.693,1.461-1.362,2.449-2.006c0.994-0.646,2.136-1.018,3.426-1.116c0.348,0,0.645,0.075,0.891,0.224
		c0.248,0.146,0.499,0.297,0.744,0.446c0.199,0.197,0.424,0.397,0.67,0.593c1.09,1.289,2.355,2.27,3.793,2.939
		c1.436,0.668,2.9,1.003,4.387,1.003c3.917,0,5.877-2.998,5.877-8.999v-3.57c-0.793,1.638-1.982,2.791-3.57,3.459
		c-1.587,0.67-3.301,1.005-5.132,1.005c-2.034,0-3.966-0.396-5.803-1.192c-1.831-0.791-3.446-1.968-4.831-3.529
		c-1.391-1.563-2.484-3.521-3.27-5.877c-0.797-2.354-1.197-5.094-1.197-8.22v-0.37c0-3.668,0.548-6.695,1.641-9.074
		c1.088-2.378,2.451-4.276,4.09-5.688c1.637-1.413,3.385-2.392,5.24-2.938c1.863-0.544,3.561-0.817,5.099-0.817
		c0.492,0,1.087,0.073,1.785,0.223c0.692,0.147,1.409,0.384,2.155,0.706c0.746,0.323,1.45,0.756,2.119,1.301
		c0.672,0.547,1.228,1.19,1.674,1.934V5.606c0-0.496,0.264-0.88,0.778-1.152c0.524-0.272,1.106-0.485,1.749-0.632
		c0.748-0.199,1.61-0.298,2.602-0.298c0.94,0,1.787,0.076,2.533,0.223c0.643,0.099,1.227,0.299,1.744,0.596
		c0.521,0.297,0.78,0.721,0.78,1.264V40.86z M136.079,22.639c0,1.737,0.225,3.16,0.67,4.277c0.444,1.114,1.025,1.981,1.744,2.604
		c0.721,0.62,1.502,1.04,2.344,1.263c0.847,0.225,1.66,0.334,2.456,0.334c0.94,0,1.998-0.283,3.157-0.854
		c1.166-0.569,2.221-1.328,3.164-2.27V16.54c-0.446-0.546-0.967-1.028-1.563-1.452c-0.596-0.419-1.217-0.766-1.859-1.039
		c-0.643-0.272-1.273-0.484-1.893-0.631c-0.623-0.15-1.158-0.226-1.603-0.226c-0.547,0-1.191,0.101-1.938,0.298
		c-0.739,0.2-1.458,0.609-2.151,1.226c-0.695,0.622-1.291,1.514-1.787,2.678c-0.492,1.167-0.742,2.714-0.742,4.649V22.639z"/>
</g>
</svg>
