<?xml version="1.0" encoding="utf-8"?>
<!-- Generator: Adobe Illustrator 15.1.0, SVG Export Plug-In . SVG Version: 6.00 Build 0)  -->
<!DOCTYPE svg PUBLIC "-//W3C//DTD SVG 1.1//EN" "http://www.w3.org/Graphics/SVG/1.1/DTD/svg11.dtd">
<svg version="1.1" id="Layer_1" xmlns="http://www.w3.org/2000/svg" xmlns:xlink="http://www.w3.org/1999/xlink" x="0px" y="0px"
	 width="204.688px" height="59.217px" viewBox="0 0 204.688 59.217" enable-background="new 0 0 204.688 59.217"
	 xml:space="preserve">
<rect x="-3.627" y="-13.719" fill="none" width="197.201" height="64.364"/>
<g enable-background="new    ">
	<path fill="#662D91" d="M7.021,3.425c0.071,0.355,0.147,0.834,0.23,1.438c0.083,0.604,0.147,1.143,0.195,1.615
		C8.157,6.1,8.955,5.696,9.843,5.271c0.887-0.426,1.839-0.804,2.857-1.136c1.017-0.331,2.082-0.608,3.194-0.834
		c1.112-0.225,2.236-0.337,3.372-0.337c1.94,0,3.65,0.308,5.129,0.923c1.479,0.615,2.691,1.562,3.638,2.84
		c1.301-0.592,2.538-1.124,3.709-1.598s2.307-0.87,3.408-1.189c1.1-0.319,2.188-0.562,3.265-0.728
		c1.077-0.165,2.183-0.248,3.319-0.248c1.798,0,3.366,0.302,4.704,0.905c1.336,0.603,2.437,1.432,3.301,2.484
		s1.509,2.296,1.935,3.727c0.426,1.433,0.639,2.964,0.639,4.597v27.226h-5.608V15.21c0-1.302-0.172-2.432-0.515-3.391
		c-0.343-0.958-0.823-1.757-1.438-2.396c-0.616-0.639-1.337-1.112-2.166-1.42c-0.829-0.308-1.716-0.461-2.662-0.461
		c-1.467,0-3.106,0.201-4.916,0.603c-1.811,0.403-3.591,1.054-5.342,1.953c0.236,0.662,0.408,1.401,0.515,2.218
		s0.16,1.64,0.16,2.467v27.119h-5.608V15.28c0-2.649-0.585-4.602-1.757-5.856c-1.171-1.254-2.87-1.881-5.094-1.881
		c-1.798,0-3.573,0.278-5.324,0.834c-1.751,0.556-3.384,1.225-4.898,2.005v31.521H2.052V8.039c0-0.898-0.03-1.769-0.089-2.608
		S1.839,3.922,1.768,3.425H7.021z"/>
	<path fill="#662D91" d="M71.838,36.223l9.868-32.655h6.034L74.464,41.902h-5.502L55.545,3.567h6.034L71.838,36.223z"/>
	<path fill="#662D91" d="M122.064,35.584c-0.922,1.349-1.898,2.467-2.928,3.354s-2.13,1.592-3.301,2.112
		c-1.172,0.521-2.426,0.887-3.763,1.1c-1.337,0.214-2.786,0.32-4.349,0.32c-1.987,0-3.804-0.255-5.448-0.764
		c-1.645-0.509-3.112-1.219-4.401-2.13c-1.29-0.91-2.408-1.987-3.354-3.229c-0.947-1.243-1.734-2.597-2.36-4.064
		c-0.627-1.467-1.095-3.022-1.402-4.668c-0.308-1.645-0.461-3.318-0.461-5.022c0-2.627,0.378-5.129,1.136-7.508
		c0.757-2.378,1.875-4.466,3.354-6.265c1.479-1.798,3.307-3.23,5.484-4.295c2.177-1.064,4.685-1.598,7.525-1.598
		c1.396,0,2.686,0.089,3.869,0.267c1.183,0.178,2.29,0.468,3.319,0.869c1.029,0.403,1.999,0.947,2.91,1.633
		c0.91,0.688,1.805,1.539,2.68,2.556l-3.656,3.337c-1.349-1.585-2.697-2.733-4.047-3.443c-1.348-0.71-3.123-1.064-5.324-1.064
		c-1.893,0-3.549,0.408-4.969,1.225s-2.604,1.917-3.55,3.301c-0.947,1.385-1.657,2.977-2.129,4.774
		c-0.474,1.799-0.71,3.68-0.71,5.644c0,2.083,0.271,4.1,0.816,6.053c0.544,1.952,1.325,3.686,2.343,5.2
		c1.017,1.515,2.23,2.728,3.638,3.638c1.408,0.911,2.987,1.367,4.738,1.367c2.745,0,4.869-0.479,6.371-1.438
		c1.503-0.958,2.846-2.276,4.029-3.957L122.064,35.584z"/>
</g>
<path fill="#FCD222" stroke="#FFFFFF" stroke-width="0.25" stroke-miterlimit="10" d="M175.252,2.778
	c2.727-0.047,5.222,0.387,7.476,1.302c2.253,0.919,4.198,2.234,5.839,3.942c1.636,1.709,2.903,3.792,3.793,6.249
	c0.89,2.453,1.339,5.194,1.339,8.218c0,2.876-0.423,5.467-1.266,7.771c-0.847,2.308-2.059,4.278-3.641,5.912
	c-1.593,1.638-3.527,2.892-5.808,3.759c-2.278,0.864-4.857,1.301-7.732,1.301c-2.727,0-5.208-0.42-7.435-1.265
	c-2.23-0.843-4.144-2.083-5.729-3.719s-2.813-3.608-3.681-5.913c-0.867-2.306-1.304-4.896-1.304-7.771
	c0-2.976,0.447-5.691,1.339-8.146c0.893-2.455,2.148-4.536,3.758-6.247c1.612-1.71,3.535-3.037,5.766-3.978
	S172.623,2.778,175.252,2.778z M175.326,32.603c2.481,0.051,4.503-0.865,6.063-2.75s2.343-4.338,2.343-7.363
	c0-1.439-0.188-2.79-0.557-4.053c-0.371-1.264-0.922-2.369-1.638-3.312c-0.717-0.941-1.6-1.684-2.642-2.231
	c-1.037-0.544-2.23-0.818-3.569-0.818c-1.241,0-2.371,0.274-3.383,0.818c-1.018,0.547-1.887,1.29-2.606,2.231
	c-0.715,0.943-1.274,2.047-1.668,3.312c-0.399,1.263-0.6,2.613-0.6,4.053c0,3.025,0.748,5.443,2.231,7.251
	C170.79,31.551,172.798,32.504,175.326,32.603z"/>
<path fill="#DD2847" d="M204.687,21.288l-9.947-4.731c0.309,1.637,0.482,3.367,0.482,5.216c0,1.461-0.102,2.848-0.303,4.162
	L204.687,21.288z"/>
<path fill="#FCD222" d="M159.801,40.86v0.742c0,2.479-0.331,4.762-1.003,6.844c-0.67,2.082-1.674,3.877-3.013,5.393
	c-1.339,1.51-3.021,2.688-5.058,3.531c-2.034,0.842-4.39,1.266-7.063,1.266c-1.785,0-3.562-0.223-5.322-0.67
	c-1.757-0.447-3.379-1.068-4.869-1.859c-1.483-0.795-2.801-1.733-3.939-2.825c-1.141-1.093-1.959-2.308-2.455-3.644
	c-0.099-0.299-0.146-0.572-0.146-0.82s0.01-0.495,0.034-0.742c0.025-0.248,0.157-0.496,0.41-0.745
	c0.644-0.692,1.461-1.362,2.449-2.006c0.994-0.646,2.136-1.019,3.426-1.116c0.349,0,0.646,0.075,0.892,0.225
	c0.248,0.146,0.499,0.297,0.744,0.445c0.198,0.197,0.424,0.396,0.67,0.594c1.09,1.288,2.354,2.27,3.793,2.938
	c1.436,0.668,2.899,1.003,4.387,1.003c3.917,0,5.877-2.998,5.877-8.999v-3.57c-0.793,1.638-1.982,2.791-3.57,3.459
	c-1.587,0.671-3.301,1.005-5.132,1.005c-2.034,0-3.966-0.396-5.803-1.191c-1.831-0.791-3.446-1.969-4.831-3.529
	c-1.391-1.563-2.484-3.521-3.271-5.877c-0.797-2.354-1.196-5.094-1.196-8.22v-0.37c0-3.668,0.548-6.695,1.641-9.074
	c1.088-2.378,2.451-4.276,4.09-5.688c1.638-1.413,3.386-2.392,5.24-2.938c1.863-0.544,3.562-0.817,5.099-0.817
	c0.492,0,1.088,0.073,1.785,0.223c0.692,0.147,1.409,0.384,2.155,0.706c0.746,0.323,1.45,0.756,2.119,1.301
	c0.672,0.547,1.228,1.19,1.674,1.934V5.606c0-0.496,0.264-0.88,0.778-1.152c0.523-0.272,1.105-0.485,1.749-0.632
	c0.748-0.199,1.609-0.298,2.602-0.298c0.94,0,1.787,0.076,2.533,0.223c0.643,0.099,1.227,0.299,1.744,0.596
	c0.521,0.297,0.779,0.721,0.779,1.264V40.86L159.801,40.86z M136.079,22.639c0,1.737,0.226,3.16,0.67,4.277
	c0.444,1.114,1.025,1.981,1.744,2.604c0.721,0.62,1.502,1.04,2.344,1.263c0.848,0.225,1.66,0.334,2.456,0.334
	c0.94,0,1.998-0.283,3.157-0.854c1.166-0.569,2.221-1.328,3.164-2.27V16.54c-0.446-0.546-0.967-1.028-1.563-1.452
	c-0.596-0.419-1.217-0.766-1.858-1.039c-0.644-0.272-1.273-0.484-1.894-0.631c-0.623-0.15-1.157-0.226-1.603-0.226
	c-0.547,0-1.191,0.101-1.938,0.298c-0.738,0.2-1.458,0.609-2.15,1.226c-0.695,0.622-1.291,1.514-1.787,2.678
	c-0.492,1.167-0.742,2.714-0.742,4.649L136.079,22.639L136.079,22.639z"/>
</svg>
